HIERARCHY
ROOT Hips
{
	OFFSET 0.000000 0.000000 0.000000
	CHANNELS 6 Xposition Yposition Zposition Xrotation Yrotation Zrotation
	JOINT Chest
	{
		OFFSET 0.000000 0.009282 11.569106
		CHANNELS 3 Xrotation Yrotation Zrotation
		JOINT Chest2
		{
			OFFSET 0.000000 -0.016863 9.269641
			CHANNELS 3 Xrotation Yrotation Zrotation
			JOINT Chest3
			{
				OFFSET 0.000000 0.000000 8.374491
				CHANNELS 3 Xrotation Yrotation Zrotation
				JOINT Chest4
				{
					OFFSET 0.000000 0.000000 8.374493
					CHANNELS 3 Xrotation Yrotation Zrotation
					JOINT Neck
					{
						OFFSET 0.000000 -0.000001 12.152554
						CHANNELS 3 Xrotation Yrotation Zrotation
						JOINT Head
						{
							OFFSET 0.000000 -0.040100 7.802319
							CHANNELS 3 Xrotation Yrotation Zrotation
							End Site
							{
								OFFSET 0.000000 -0.020946 14.853096
							}
						}
					}
					JOINT RightCollar
					{
						OFFSET -2.894404 0.000000 6.791374
						CHANNELS 3 Xrotation Yrotation Zrotation
						JOINT RightShoulder
						{
							OFFSET -13.574684 0.000000 0.000000
							CHANNELS 3 Xrotation Yrotation Zrotation
							JOINT RightElbow
							{
								OFFSET -23.923903 0.000000 0.000000
								CHANNELS 3 Xrotation Yrotation Zrotation
								JOINT RightWrist
								{
									OFFSET -19.846718 -0.012765 0.000000
									CHANNELS 3 Xrotation Yrotation Zrotation
									End Site
									{
										OFFSET -14.973145 0.000000 0.000000
									}
								}
							}
						}
					}
					JOINT LeftCollar
					{
						OFFSET 2.894404 0.000000 6.791374
						CHANNELS 3 Xrotation Yrotation Zrotation
						JOINT LeftShoulder
						{
							OFFSET 13.574684 0.000000 0.000000
							CHANNELS 3 Xrotation Yrotation Zrotation
							JOINT LeftElbow
							{
								OFFSET 23.923903 0.000000 0.000000
								CHANNELS 3 Xrotation Yrotation Zrotation
								JOINT LeftWrist
								{
									OFFSET 19.846718 -0.012765 0.000000
									CHANNELS 3 Xrotation Yrotation Zrotation
									End Site
									{
										OFFSET 14.973145 0.000000 0.000000
									}
								}
							}
						}
					}
				}
			}
		}
	}
	JOINT RightHip
	{
		OFFSET -9.469263 -0.004642 0.045487
		CHANNELS 3 Xrotation Yrotation Zrotation
		JOINT RightKnee
		{
			OFFSET 0.000000 -0.002666 -40.478676
			CHANNELS 3 Xrotation Yrotation Zrotation
			JOINT RightAnkle
			{
				OFFSET 0.000000 -0.049110 -35.224068
				CHANNELS 3 Xrotation Yrotation Zrotation
				JOINT RightToe
				{
					OFFSET 0.000000 -12.539530 -6.151390
					CHANNELS 3 Xrotation Yrotation Zrotation
					End Site
					{
						OFFSET 0.000000 -5.044995 -1.291870
					}
				}
			}
		}
	}
	JOINT LeftHip
	{
		OFFSET 9.469263 -0.004642 0.045487
		CHANNELS 3 Xrotation Yrotation Zrotation
		JOINT LeftKnee
		{
			OFFSET 0.000000 -0.002666 -40.478676
			CHANNELS 3 Xrotation Yrotation Zrotation
			JOINT LeftAnkle
			{
				OFFSET 0.000000 -0.049110 -35.224068
				CHANNELS 3 Xrotation Yrotation Zrotation
				JOINT LeftToe
				{
					OFFSET 0.000000 -12.539530 -6.151390
					CHANNELS 3 Xrotation Yrotation Zrotation
					End Site
					{
						OFFSET 0.000000 -5.044995 -1.291870
					}
				}
			}
		}
	}
}
MOTION
Frames: 5
Frame Time: 0.016667
2.448274 -24.785593 80.455406 -1.981925 -8.790328 -128.499013 8.854821 11.726201 -4.437069 3.805130 5.370210 -1.678631 3.805131 5.370214 -1.678637 2.836986 4.038311 -1.224585 14.752196 2.310564 13.805732 -8.010060 -0.887626 25.970211 3.459027 -8.974925 -3.633869 52.999314 -51.877117 36.628071 75.438613 2.984697 65.967989 -12.689459 4.655739 43.221806 5.567795 8.680931 -7.508714 41.230714 50.425009 -14.717628 81.948159 31.076958 -78.744076 -21.239262 -36.663557 -43.400596 -14.216018 -13.089045 -10.653247 -0.411981 -5.450378 -7.058316 1.293120 6.430799 0.298054 0.855667 1.535586 0.012235 -30.416639 -4.269877 0.156629 -0.046012 1.181167 18.233059 9.646689 0.496525 -0.560542 4.082162 -5.822387 -0.109641 
2.467291 -24.816235 80.386147 -2.056703 -9.445166 -129.053228 8.967077 11.837988 -4.424012 3.853455 5.410528 -1.702978 3.853445 5.410525 -1.702985 2.872840 4.068840 -1.242142 14.631232 2.374162 13.983840 -8.218576 -0.858181 26.317048 3.690489 -8.798318 -3.565338 53.009583 -51.979068 36.804437 75.407583 3.270300 65.797207 -12.899744 4.432149 43.647764 5.822764 8.773822 -7.631342 41.655725 50.433833 -15.144070 81.591480 30.983080 -78.628810 -21.587578 -37.128020 -43.747358 -14.634495 -13.465842 -10.460122 -0.588124 -5.504307 -7.135719 1.327403 5.784822 0.629340 0.803376 1.718418 -0.065607 -32.777067 -4.812462 0.897775 2.199040 1.534438 20.415381 9.633416 0.144234 0.343667 2.438933 -5.297915 -0.184833 
2.436985 -24.820625 80.316277 -2.129660 -9.996805 -129.652536 9.110651 12.042644 -4.342514 3.901066 5.490150 -1.691074 3.901068 5.490158 -1.691065 2.908355 4.128633 -1.232255 14.525543 2.366591 14.114656 -8.392345 -0.937895 26.552215 3.870148 -8.714120 -3.586222 53.184446 -52.083290 37.133590 75.252565 3.535951 65.583552 -12.864672 4.164689 43.865534 6.039220 8.805642 -7.764942 41.686113 50.431993 -15.151827 81.420124 30.280018 -78.701312 -22.304060 -37.536609 -43.937490 -14.893601 -13.817713 -10.415244 -0.780484 -5.576040 -7.199126 1.286695 5.250733 1.119383 0.793642 1.795470 -0.098304 -33.973638 -5.570811 1.244317 3.168814 2.263497 21.960467 9.604983 -0.100004 1.162063 1.360971 -4.782445 -0.209409 
2.356310 -24.780025 80.263702 -2.276487 -10.475855 -130.228294 9.225309 12.317781 -4.286502 3.946475 5.624665 -1.670466 3.946480 5.624668 -1.670464 2.942088 4.229522 -1.215462 14.441550 2.323924 14.227473 -8.522046 -1.070455 26.741987 3.933546 -8.766992 -3.727360 53.313072 -52.153060 37.476008 75.239315 3.803342 65.456653 -12.812389 3.877249 43.880093 5.976792 8.814921 -7.837676 41.386555 50.391599 -14.593454 81.543812 29.039451 -78.917433 -23.423483 -37.647873 -44.074651 -15.078790 -14.139256 -10.558053 -1.004301 -5.605613 -7.016462 1.264809 4.914980 1.473285 0.767548 1.700927 -0.048618 -34.104501 -5.786096 2.701416 2.903423 1.985107 21.226715 9.736955 0.211013 1.674093 0.863036 -4.174661 -0.201788 
2.248253 -24.699556 80.234581 -2.529737 -10.995949 -130.756964 9.256101 12.579391 -4.273772 3.971547 5.771071 -1.666736 3.971547 5.771074 -1.666742 2.960373 4.339375 -1.211439 14.370581 2.303897 14.332722 -8.632955 -1.157220 26.926086 3.847680 -8.869468 -3.896875 53.250948 -52.250278 37.530978 75.419249 4.022494 65.465410 -12.805977 3.540835 43.780143 5.867252 8.782744 -7.859348 40.886653 50.355327 -13.798320 81.870254 27.746414 -79.173873 -24.599128 -37.711264 -44.165963 -15.394599 -14.467461 -10.742996 -1.130483 -5.543947 -6.849993 1.170093 4.699959 1.774587 0.747942 1.494329 0.050929 -33.754542 -5.640654 4.944490 2.063948 1.237469 18.724250 9.794544 0.620254 2.201692 0.690743 -3.400757 -0.175909 
